<svg width="120" height="120" viewBox="0 0 120 120" xmlns="http://www.w3.org/2000/svg">
  <defs>
    <linearGradient id="logoGradient" x1="0%" y1="0%" x2="100%" y2="100%">
      <stop offset="0%" style="stop-color:#667eea;stop-opacity:1" />
      <stop offset="100%" style="stop-color:#764ba2;stop-opacity:1" />
    </linearGradient>
    <filter id="shadow" x="-20%" y="-20%" width="140%" height="140%">
      <feDropShadow dx="2" dy="2" stdDeviation="3" flood-color="rgba(0,0,0,0.3)"/>
    </filter>
  </defs>
  
  <!-- Background circle -->
  <circle cx="60" cy="60" r="55" fill="url(#logoGradient)" filter="url(#shadow)"/>
  
  <!-- Map/Grid background -->
  <rect x="20" y="30" width="80" height="60" rx="8" fill="rgba(255,255,255,0.9)" stroke="rgba(0,0,0,0.1)" stroke-width="1"/>
  
  <!-- Grid lines for map -->
  <g stroke="rgba(0,0,0,0.1)" stroke-width="0.5">
    <line x1="30" y1="30" x2="30" y2="90"/>
    <line x1="45" y1="30" x2="45" y2="90"/>
    <line x1="60" y1="30" x2="60" y2="90"/>
    <line x1="75" y1="30" x2="75" y2="90"/>
    <line x1="90" y1="30" x2="90" y2="90"/>
    <line x1="20" y1="40" x2="100" y2="40"/>
    <line x1="20" y1="55" x2="100" y2="55"/>
    <line x1="20" y1="70" x2="100" y2="70"/>
    <line x1="20" y1="85" x2="100" y2="85"/>
  </g>
  
  <!-- Network nodes -->
  <circle cx="35" cy="45" r="4" fill="#dc3545"/>
  <circle cx="65" cy="50" r="4" fill="#28a745"/>
  <circle cx="85" cy="65" r="4" fill="#ffc107"/>
  <circle cx="45" cy="75" r="4" fill="#17a2b8"/>
  
  <!-- Connection lines -->
  <g stroke="rgba(0,0,0,0.4)" stroke-width="2" fill="none">
    <line x1="35" y1="45" x2="65" y2="50"/>
    <line x1="65" y1="50" x2="85" y2="65"/>
    <line x1="45" y1="75" x2="65" y2="50"/>
  </g>
  
  <!-- Audit/Security icon -->
  <g transform="translate(75, 25)">
    <circle cx="8" cy="8" r="6" fill="none" stroke="#007bff" stroke-width="2"/>
    <rect x="5" y="8" width="6" height="4" rx="1" fill="#007bff"/>
  </g>
  
  <!-- Magnifying glass for audit -->
  <g transform="translate(25, 75)">
    <circle cx="5" cy="5" r="4" fill="none" stroke="#007bff" stroke-width="2"/>
    <line x1="8" y1="8" x2="12" y2="12" stroke="#007bff" stroke-width="2"/>
  </g>
</svg> 